<svg width="179" height="40" viewBox="0 0 179 40" fill="none" xmlns="http://www.w3.org/2000/svg">
<g clip-path="url(#clip0_1052_5976)">
<path d="M135.248 38.1724H130.118C130.118 38.1724 132.658 35.0309 132.658 31.9415C132.658 27.0439 129.722 24.5399 128.176 24.2732C127.629 24.1691 126.831 24.1171 126.183 24.1171V26.3545C126.435 26.3025 126.63 26.2504 126.831 26.2504C128.968 26.2504 129.421 30.2439 129.069 32.4813C128.767 34.4521 127.824 36.9561 126.183 37.483V39.9285H138.774V24.1171H135.242V38.1724H135.248ZM126.189 24.1171H107.174C106.778 24.1171 104.684 24.013 103.886 26.1399C103.339 27.6813 103.635 29.496 104.829 30.4C105.476 30.8813 113.19 36.4163 113.19 36.4163C113.19 36.4163 114.283 37.0537 114.183 37.6391C114.133 38.1724 113.435 38.0618 113.435 38.0618H102.685C102.685 38.0618 101.736 38.1659 101.491 37.8992C101.239 37.5805 101.34 36.3057 101.34 36.3057V24.3252H97.6564V25.4439C97.6564 25.4439 96.4117 24.3252 94.9659 24.3252V27.7334C95.4625 27.4667 96.0094 27.4147 96.5563 27.6813C98.4484 28.5334 97.9518 31.1935 97.1032 33.2163C96.6066 34.4976 95.8585 35.7204 94.9659 36.3057V39.6098C95.5128 39.3952 96.1099 39.0244 96.8077 38.3285C97.8512 37.3138 98.0524 36.787 98.0524 36.787C98.0524 36.787 97.8512 38.1204 98.3541 38.9138C99.0016 39.9285 99.8 39.9285 99.8 39.9285H115.233C116.427 39.9285 118.866 39.6098 118.765 36.5724C118.715 34.4456 116.578 32.9496 116.578 32.9496L109.462 27.5187C109.462 27.5187 108.814 27.148 108.865 26.4521C108.915 25.7626 109.814 25.8667 109.814 25.8667H122.405C122.405 25.8667 119.815 27.9415 119.815 32.8391C119.815 37.2033 123.002 39.922 125.441 39.922H126.189V37.4764C125.988 37.5805 125.743 37.6325 125.492 37.6325C123.398 37.5805 123.002 33.9057 123.298 31.883C123.549 30.0163 124.593 27.0374 126.183 26.348V24.1106L126.189 24.1171ZM94.9784 24.3317C93.3377 24.3317 91.2947 25.2358 89.9495 27.1545C88.4533 29.2813 88.2082 30.296 88.007 31.7854C87.9064 32.8 87.9064 34.6082 88.403 36.0976C88.6545 37.0537 89.3523 38.0683 89.3523 38.0683H81.287C81.287 38.0683 80.3378 38.0683 79.4452 37.6456V39.935H93.5829C93.5829 39.935 94.1298 39.987 94.9784 39.6163V36.3122C94.4315 36.683 93.8846 36.8456 93.2874 36.5789C91.4959 35.8309 92.1433 32.2667 92.7405 30.7773C93.2371 29.6065 94.0355 28.3317 94.9784 27.7399V24.3317ZM79.4452 33.2228V30.8293H81.7837C81.7837 30.8293 81.287 25.8797 79.4452 25.7691V24.2277C86.2154 24.2277 86.2154 33.2228 86.2154 33.2228H79.4452ZM79.4452 37.6456C78.7977 37.3269 78.1502 36.7935 77.8045 35.9415C77.2576 34.5561 77.157 33.2293 77.157 33.2293H79.4452V30.8358H77.0564C77.0564 30.8358 77.4525 25.7756 79.3446 25.7756H79.4452V24.2342H79.3446C72.2286 24.2342 72.7252 33.2293 72.7252 33.2293C72.7252 33.2293 72.8761 35.096 73.7184 36.5334C74.6614 38.0228 75.6106 38.7187 76.9558 39.3561C78.0496 39.8895 79.3446 39.9415 79.3446 39.9415H79.4452V37.6521V37.6456Z" fill="#0085CA"/>
<path d="M163.467 37.7496C162.97 37.1122 162.618 32.8521 163.02 30.6147C163.416 28.1106 163.819 27.5773 164.611 27.1025C165.409 26.6797 167.899 26.7317 167.899 26.7317V29.5545H171.287V25.9838C171.287 25.9838 171.387 24.8651 170.589 24.4423C169.942 24.0195 168.697 24.0716 168.697 24.0716C168.697 24.0716 164.416 24.0195 162.876 24.0195C161.681 24.0195 160.984 24.5529 160.286 25.4049C159.538 26.4195 158.746 28.709 158.595 30.8358C158.444 32.9626 158.941 36 158.645 36.6374C158.394 37.2748 158.149 37.7041 157.401 37.8602C156.652 38.0748 154.666 38.0748 154.666 38.0748V24.1236H151.083V37.1708C151.083 37.1708 150.932 37.7041 150.285 37.8602C149.637 38.0748 147.148 38.0748 147.148 38.0748V27.161C147.148 27.161 147.097 24.1236 143.961 24.1236C141.622 24.1236 140.975 25.1382 140.377 25.6651C139.981 25.9838 138.831 27.3691 138.831 27.3691V29.4439C138.831 29.4439 140.277 27.8439 140.924 27.3691C141.622 26.8358 142.169 26.6212 142.867 26.6212C143.715 26.6212 144.061 27.4732 144.061 27.9545V39.935C144.061 39.935 146.154 40.0911 147.299 39.935C148.443 39.7203 149.536 39.6163 149.889 39.5122C150.335 39.4081 151.234 39.1415 151.234 39.1415C151.234 39.1415 151.435 39.6748 152.082 39.8309C152.68 40.0455 153.824 39.935 153.824 39.935C153.824 39.935 156.514 40.039 157.407 39.8309C158.299 39.6683 159.5 38.0748 159.5 38.0748C159.5 38.0748 159.55 38.9789 160.047 39.2976C160.896 39.8829 161.738 39.935 161.738 39.935H177.02L178.214 38.0683H165.321C165.321 38.0683 163.825 38.1724 163.479 37.7496H163.467Z" fill="#0085CA"/>
<path d="M23.1961 8.14309L27.3262 0H21.2034L16.8722 8.14309L29.5201 32.1041H4.38149L0 39.9285H31.2614L35.7371 32.052L23.1961 8.14309Z" fill="#0085CA"/>
<path d="M57.841 8.14309L62.1722 0H30.5651L26.3848 8.14309L39.0766 32.052L34.8963 39.9285H41.1699L45.3503 32.1041L32.6521 8.14309H57.841Z" fill="#0085CA"/>
<path d="M70.1857 30.7187C68.5953 29.4374 57.2424 20.8715 57.2424 20.8715C57.2424 20.8715 56.3434 20.2341 56.3434 19.4862C56.3434 18.6862 57.2864 18.6862 57.2864 18.6862H71.6755V16.1301H54.9982C54.9982 16.1301 50.9184 16.026 49.6738 20.0715C49.0263 22.1463 49.9692 24.1171 51.0693 25.1837C51.415 25.5545 52.2637 26.1984 52.2637 26.1984L63.7612 34.8228C63.7612 34.8228 64.7544 35.5122 64.7544 36.3122C64.7544 37.2163 63.956 37.2162 63.956 37.2162H49.9189V39.9284H67.9415C67.9415 39.9284 71.028 39.6097 71.9207 36.5723C72.7693 33.4829 71.7195 32.0455 70.1794 30.7187H70.1857Z" fill="#0085CA"/>
<path d="M154.81 18.7382H151.177V22.6211H154.81V18.7382Z" fill="#0085CA"/>
<path d="M177.504 21.0862C177.504 20.7154 177.403 20.5008 177.158 20.3382C176.913 20.1756 176.561 20.0715 176.165 20.0715V20.5528C176.366 20.5528 176.511 20.6049 176.611 20.6569C176.762 20.761 176.863 20.9236 176.863 21.1382C176.863 21.3528 176.762 21.5089 176.662 21.561C176.511 21.665 176.36 21.7236 176.165 21.7236V22.3089L176.762 23.6943H177.51L176.712 22.0423C176.963 21.9902 177.158 21.8862 177.309 21.7236C177.46 21.561 177.51 21.3528 177.51 21.0862H177.504ZM176.159 20.0715H174.813V23.6943H175.461V22.1528H176.058L176.159 22.3154V21.7301H175.461V20.5073H175.958C176.008 20.5073 176.108 20.5073 176.159 20.5593V20.078V20.0715Z" fill="#0085CA"/>
<path d="M178.799 20.7089C178.648 20.3382 178.453 20.0195 178.151 19.6943C177.849 19.3756 177.554 19.161 177.158 19.0049C176.812 18.8423 176.41 18.7382 176.014 18.7382V19.1675C176.36 19.1675 176.712 19.2715 177.007 19.3821C177.353 19.5447 177.654 19.7528 177.9 20.0195C178.101 20.2341 178.296 20.5528 178.447 20.8715C178.547 21.2423 178.648 21.6195 178.648 21.9902C178.648 22.361 178.547 22.6797 178.447 23.0569C178.296 23.3756 178.101 23.6423 177.849 23.9089C177.598 24.1756 177.302 24.3902 177.001 24.5463C176.699 24.6504 176.353 24.7024 176.008 24.7024V25.1837C176.404 25.1837 176.756 25.0797 177.152 24.9171C177.497 24.761 177.849 24.5463 178.145 24.2276C178.447 23.9089 178.641 23.5902 178.792 23.213C178.943 22.7902 178.993 22.413 178.993 21.9317C178.993 21.5024 178.943 21.1317 178.792 20.7089H178.799ZM176.014 18.7382C175.618 18.7382 175.215 18.7902 174.87 18.9528C174.568 19.1154 174.222 19.3236 173.977 19.6423C173.675 19.961 173.48 20.3317 173.279 20.7089C173.128 21.1317 173.078 21.5089 173.078 21.9317C173.078 22.3545 173.128 22.7837 173.279 23.1545C173.43 23.5252 173.675 23.9024 173.927 24.2211C174.229 24.4878 174.574 24.7545 174.876 24.9106C175.222 25.0666 175.624 25.1772 176.02 25.1772V24.6959C175.674 24.6959 175.322 24.6439 175.027 24.4813C174.725 24.3772 174.48 24.1626 174.229 23.8959C173.977 23.6293 173.782 23.3106 173.682 22.9919C173.531 22.6732 173.48 22.3024 173.48 21.9252C173.48 21.6065 173.531 21.2358 173.682 20.8585C173.782 20.5398 173.983 20.2211 174.279 19.9545C174.48 19.6878 174.725 19.5252 175.027 19.3691C175.329 19.2065 175.674 19.1545 176.02 19.1545V18.7317L176.014 18.7382Z" fill="#0085CA"/>
</g>
<defs>
<clipPath id="clip0_1052_5976">
<rect width="179" height="40" fill="white"/>
</clipPath>
</defs>
</svg>
